<svg width="10" height="14" viewBox="0 0 10 14" fill="none" xmlns="http://www.w3.org/2000/svg">
<path d="M0.717454 8.7175C0.647158 8.78722 0.591362 8.87017 0.553286 8.96157C0.515209 9.05296 0.495605 9.15099 0.495605 9.25C0.495605 9.34901 0.515209 9.44704 0.553286 9.53843C0.591362 9.62983 0.647158 9.71278 0.717454 9.7825L4.46745 13.5325C4.53718 13.6028 4.62013 13.6586 4.71152 13.6967C4.80292 13.7347 4.90094 13.7543 4.99995 13.7543C5.09896 13.7543 5.19699 13.7347 5.28839 13.6967C5.37978 13.6586 5.46273 13.6028 5.53245 13.5325L9.28245 9.7825C9.35275 9.71278 9.40854 9.62983 9.44662 9.53843C9.4847 9.44704 9.5043 9.34901 9.5043 9.25C9.5043 9.15099 9.4847 9.05296 9.44662 8.96157C9.40854 8.87017 9.35275 8.78722 9.28245 8.7175C9.21273 8.6472 9.12978 8.59141 9.03838 8.55333C8.94699 8.51525 8.84896 8.49565 8.74995 8.49565C8.65094 8.49565 8.55291 8.51525 8.46152 8.55333C8.37013 8.59141 8.28718 8.6472 8.21745 8.7175L4.99995 11.9425L1.78245 8.7175C1.71273 8.6472 1.62978 8.59141 1.53839 8.55333C1.44699 8.51525 1.34896 8.49565 1.24995 8.49565C1.15095 8.49565 1.05292 8.51525 0.961522 8.55333C0.870127 8.59141 0.787176 8.6472 0.717454 8.7175ZM4.46745 0.467501L0.717454 4.2175C0.647525 4.28743 0.592055 4.37045 0.55421 4.46181C0.516364 4.55318 0.496885 4.65111 0.496885 4.75C0.496885 4.94973 0.576226 5.14127 0.717454 5.2825C0.787383 5.35243 0.870401 5.4079 0.961767 5.44575C1.05313 5.48359 1.15106 5.50307 1.24995 5.50307C1.44968 5.50307 1.64123 5.42373 1.78245 5.2825L4.99995 2.0575L8.21745 5.2825C8.28718 5.3528 8.37013 5.40859 8.46152 5.44667C8.55291 5.48475 8.65094 5.50435 8.74995 5.50435C8.84896 5.50435 8.94699 5.48475 9.03838 5.44667C9.12978 5.40859 9.21273 5.3528 9.28245 5.2825C9.35275 5.21278 9.40854 5.12983 9.44662 5.03843C9.4847 4.94704 9.5043 4.84901 9.5043 4.75C9.5043 4.65099 9.4847 4.55296 9.44662 4.46157C9.40854 4.37017 9.35275 4.28722 9.28245 4.2175L5.53245 0.467501C5.46273 0.397204 5.37978 0.341408 5.28839 0.303331C5.19699 0.265254 5.09896 0.245651 4.99995 0.245651C4.90094 0.245651 4.80292 0.265254 4.71152 0.303331C4.62013 0.341408 4.53718 0.397204 4.46745 0.467501Z" fill="#21395D"/>
</svg>
